<?xml version="1.0" encoding="utf-8"?>
<!-- Generator: Adobe Illustrator 19.2.0, SVG Export Plug-In . SVG Version: 6.00 Build 0)  -->
<svg version="1.1" id="Layer_1" xmlns="http://www.w3.org/2000/svg" xmlns:xlink="http://www.w3.org/1999/xlink" x="0px" y="0px"
	 viewBox="0 0 200 78" style="enable-background:new 0 0 200 78;" xml:space="preserve">
<g>
	<rect style="fill:none;" width="200" height="78"/>
	<g>
		<g>
			<path style="fill:#FFFFFF;" d="M28.9,57.1v11c-2.5,3.3-6.4,5.4-10.5,5.4c-7.1,0-13-5.8-13-13c0-7.1,5.8-13,13-13
				c3.5,0,6.8,1.4,9.2,3.8l-2.3,2c-1.8-1.8-4.3-2.8-6.9-2.8c-5.5,0-9.9,4.4-9.9,9.9c0,5.5,4.4,9.9,9.9,9.9c2.9,0,5.5-1.2,7.5-3.3
				v-6.9h-7.3v-3.1H28.9z"/>
			<path style="fill:#FFFFFF;" d="M52.3,48.2v15.7c0,5.2-4.2,9.4-9.5,9.4c-5.2,0-9.4-4.2-9.4-9.4V48.2h3.1v15.7
				c0,3.5,2.9,6.4,6.3,6.4c3.5,0,6.3-2.9,6.3-6.4V48.2H52.3z"/>
			<path style="fill:#FFFFFF;" d="M57.9,48.2h15.7v3H61.1v5.8H72v3.1H61.1V70h12.2V73H57.9V48.2z"/>
			<path style="fill:#FFFFFF;" d="M84.2,73c-2.6-0.5-5.1-1.8-7.4-3.8l2.1-2.3c1.8,1.6,3.9,2.7,6,3.1c1.7,0.4,3.4,0.2,4.8-0.4
				c0.9-0.4,2.5-1.5,2.5-3.6c0-2.6-2.8-3.6-5.5-4.1c-0.2,0-4.1-0.8-5.7-1.7c-2.1-1.3-3.2-3.1-3.2-5.4c0-1.3,0.4-2.5,1.1-3.6
				c0.7-1,1.7-1.8,2.9-2.3c1.7-0.8,3.8-1.1,5.9-0.7c2.3,0.4,4.6,1.5,6.6,3.1l-2,2.4c-3.6-3-7.1-3-9.2-2.1c-1.4,0.7-2.3,1.9-2.3,3.1
				c0,2.4,2,3.3,5.2,4c1.3,0.3,4.1,0.8,5.7,1.7c2.3,1.3,3.4,3.2,3.4,5.6c0,1.4-0.4,2.8-1.2,3.9c-0.7,1-1.8,1.8-3.1,2.5
				c-1.3,0.7-2.7,0.9-4.2,0.9C85.9,73.3,85,73.2,84.2,73z"/>
			<path style="fill:#FFFFFF;" d="M105.1,73c-2.6-0.5-5.1-1.8-7.4-3.8l2.1-2.3c1.8,1.6,3.9,2.7,6,3.1c1.7,0.4,3.4,0.2,4.8-0.4
				c0.9-0.4,2.5-1.5,2.5-3.6c0-2.6-2.8-3.6-5.5-4.1c-0.2,0-4.1-0.8-5.7-1.7c-2.1-1.3-3.2-3.1-3.2-5.4c0-1.3,0.4-2.5,1.1-3.6
				c0.7-1,1.7-1.8,2.9-2.3c1.7-0.8,3.8-1.1,5.9-0.7c2.3,0.4,4.6,1.5,6.6,3.1l-2,2.4c-3.6-3-7.1-3-9.2-2.1c-1.4,0.7-2.3,1.9-2.3,3.1
				c0,2.4,2,3.3,5.2,4c1.3,0.3,4.1,0.8,5.7,1.7c2.3,1.3,3.4,3.2,3.4,5.6c0,1.4-0.4,2.8-1.2,3.9c-0.7,1-1.8,1.8-3.1,2.5
				c-1.3,0.7-2.7,0.9-4.2,0.9C106.8,73.3,106,73.2,105.1,73z"/>
			<path style="fill:#FFFFFF;" d="M144.1,60.1h-12.7V73h-3.1V48.2h3.1v8.8h12.7v-8.8h3.1V73h-3.1V60.1z"/>
			<path style="fill:#FFFFFF;" d="M152.6,48.2h15.7v3h-12.5v5.8h10.9v3.1h-10.9V70h12.2V73h-15.4V48.2z"/>
			<path style="fill:#FFFFFF;" d="M181.3,62.7L173.9,73h-3.8l9.3-13L171,48.2h3.8l6.5,9.1l6.5-9.1h3.8L183.2,60l9.3,13h-3.8
				L181.3,62.7z"/>
		</g>
		<g>
			<path style="fill:#FFFFFF;" d="M103.4,39.2l1.3-6.4H89.3L88,39.2h-2.6l1.3-6.4h-6.5l0.6-2.6h6.5l3-15.5h-6.4l0.5-2.6h6.6l1.3-6.6
				h2.6l-1.3,6.6h15.5l1.3-6.6h2.6l-1.3,6.6h6.4l-0.5,2.6H111l-3.1,15.5h6.5l-0.6,2.6h-6.5l-1.3,6.4H103.4z"/>
		</g>
	</g>
</g>
</svg>
